<?xml version="1.0" encoding="UTF-8" standalone="no"?><!DOCTYPE svg PUBLIC "-//W3C//DTD SVG 1.1//EN" "http://www.w3.org/Graphics/SVG/1.1/DTD/svg11.dtd"><svg width="100%" height="100%" viewBox="0 0 500 500" version="1.1" xmlns="http://www.w3.org/2000/svg" xmlns:xlink="http://www.w3.org/1999/xlink" xml:space="preserve" xmlns:serif="http://www.serif.com/" style="fill-rule:evenodd;clip-rule:evenodd;stroke-linejoin:round;stroke-miterlimit:2;"><path d="M467.41,52.851l-310.694,325.749c-3.842,4.029 -10.568,4.633 -15.01,1.349c-4.442,-3.284 -4.928,-9.221 -1.085,-13.25l310.694,-325.749c3.842,-4.029 10.568,-4.633 15.01,-1.349c4.442,3.284 4.928,9.221 1.085,13.25Z" style="fill:#0042ff;"/><path d="M466.895,50.08l-344.533,298.834c-4.157,3.606 -10.837,3.58 -14.908,-0.058c-4.07,-3.638 -4,-9.519 0.158,-13.125l344.533,-298.834c4.157,-3.606 10.837,-3.58 14.908,0.058c4.07,3.638 4,9.519 -0.158,13.125Z" style="fill:#0042ff;"/><path d="M468.478,51.645l-200.764,337.379c-2.909,4.889 -9.442,6.934 -14.58,4.564c-5.138,-2.37 -6.947,-8.263 -4.037,-13.152l200.764,-337.379c2.909,-4.889 9.442,-6.934 14.58,-4.564c5.138,2.37 6.947,8.263 4.037,13.152Z" style="fill:#0042ff;"/><path d="M251.63,275.894l13.985,107.307c0.743,5.704 -3.298,10.805 -9.019,11.383c-5.721,0.578 -10.97,-3.584 -11.713,-9.288l-13.985,-107.307c-0.743,-5.704 3.298,-10.805 9.019,-11.383c5.721,-0.578 10.97,3.584 11.713,9.288Z" style="fill:#0042ff;"/><path d="M248.182,281.229l-128.188,69.057c-4.667,2.514 -10.895,1.044 -13.901,-3.281c-3.006,-4.325 -1.657,-9.877 3.01,-12.391l128.188,-69.057c4.667,-2.514 10.895,-1.044 13.901,3.281c3.006,4.325 1.657,9.877 -3.01,12.391Z" style="fill:#0042ff;"/><clipPath id="_clip1"><path d="M357.429,16.372l-170.043,433.994l-217.314,-66.006l170.043,-433.994l217.314,66.006Z"/></clipPath><g clip-path="url(#_clip1)"><path d="M411.449,19.567c27.471,-14.598 52.553,18.12 53.243,17.939c-16.096,22.689 -273.366,275.445 -301.86,306.989c-29.719,32.9 -52.179,42.98 -72.105,29.798c-20.535,-13.585 -21.467,-54.171 13.764,-124.293m360.202,-212.494c1.594,1.433 -193.868,220.475 -194.011,221.382c-54.576,53.268 -87.648,92.625 -114.443,120.864c-23.704,24.982 -60.139,28.575 -75.264,23.521c-55.432,-18.521 -61.972,-116.165 -19.681,-224.101c1.486,-3.794 394.433,-144.883 398.17,-146.914" style="fill:#0042ff;"/></g></svg>